grf
version=1
nRows=9
nColumns=37
inDegrees=no
endheader
time	ground_force_1_vx	ground_force_1_vy	ground_force_1_vz	ground_force_1_px	ground_force_1_py	ground_force_1_pz	ground_moment_1_mx	ground_moment_1_my	ground_moment_1_mz	ground_force_2_vx	ground_force_2_vy	ground_force_2_vz	ground_force_2_px	ground_force_2_py	ground_force_2_pz	ground_moment_2_mx	ground_moment_2_my	ground_moment_2_mz	ground_force_3_vx	ground_force_3_vy	ground_force_3_vz	ground_force_3_px	ground_force_3_py	ground_force_3_pz	ground_moment_3_mx	ground_moment_3_my	ground_moment_3_mz	ground_force_4_vx	ground_force_4_vy	ground_force_4_vz	ground_force_4_px	ground_force_4_py	ground_force_4_pz	ground_moment_4_mx	ground_moment_4_my	ground_moment_4_mz
      4.89000000	      0.00000000	     -0.00000000	      0.00000000	      0.00000000	      0.00000000	      0.00000000	      0.00000000	      0.00000000	      0.00000000	      3.14348364	     11.50837040	    -77.05381775	   -298.32665181	  -1190.96083171	      0.00000000	      0.00000000	      0.00000000	    624.74372694	      1.40890248	    -22.91700942	   -123.33293152	   -293.92598341	   -689.48561475	      0.00000000	      0.00000000	     -0.00000000	   -128.04341458	      0.00000000	     -0.00000000	      0.00000000	      0.00000000	      0.00000000	      0.00000000	      0.00000000	      0.00000000	      0.00000000
      4.90000000	      0.00000000	     -0.00000000	      0.00000000	      0.00000000	      0.00000000	      0.00000000	      0.00000000	      0.00000000	      0.00000000	      3.52565503	     11.23043060	    -70.14125824	   -294.96813801	  -1183.82083155	      0.00000000	      0.00000000	      0.00000000	    496.67328082	      2.48390098	    -22.83309566	   -117.87272644	   -295.44272994	   -688.81157217	      0.00000000	      0.00000000	     -0.00000000	    -96.89272952	      0.00000000	     -0.00000000	      0.00000000	      0.00000000	      0.00000000	      0.00000000	      0.00000000	      0.00000000	      0.00000000
      4.91000000	      0.00000000	     -0.00000000	      0.00000000	      0.00000000	      0.00000000	      0.00000000	      0.00000000	      0.00000000	      0.00000000	      3.61429858	     10.89809990	    -68.12084198	   -295.63645690	  -1192.77524812	      0.00000000	      0.00000000	      0.00000000	    191.17648173	      3.95975609	    -22.97433489	   -117.75955200	   -298.32081549	   -685.11453602	      0.00000000	      0.00000000	      0.00000000	     16.96340231	      0.00000000	     -0.00000000	      0.00000000	      0.00000000	      0.00000000	      0.00000000	      0.00000000	      0.00000000	      0.00000000
      4.92000000	      0.00000000	     -0.00000000	      0.00000000	      0.00000000	      0.00000000	      0.00000000	      0.00000000	      0.00000000	      0.00000000	      3.78114462	     10.96303940	    -65.77841949	   -297.04714437	  -1186.44372096	      0.00000000	      0.00000000	      0.00000000	    272.53245038	      5.12344399	    -23.81274627	   -119.10356140	   -300.17795118	   -687.91439011	      0.00000000	      0.00000000	     -0.00000000	    -75.96896441	      0.00000000	     -0.00000000	      0.00000000	      0.00000000	      0.00000000	      0.00000000	      0.00000000	      0.00000000	      0.00000000
      4.93000000	      0.00000000	     -0.00000000	      0.00000000	      0.00000000	      0.00000000	      0.00000000	      0.00000000	      0.00000000	      0.00000000	      4.71703434	     11.45337200	    -64.18976593	   -299.01282662	  -1184.56107276	      0.00000000	      0.00000000	      0.00000000	    251.90904191	      6.70892653	    -25.28196746	   -124.56029510	   -303.13180583	   -690.16752568	      0.00000000	      0.00000000	     -0.00000000	   -123.58902818	      0.00000000	     -0.00000000	      0.00000000	      0.00000000	      0.00000000	      0.00000000	      0.00000000	      0.00000000	      0.00000000
      4.94000000	      0.00000000	     -0.00000000	      0.00000000	      0.00000000	      0.00000000	      0.00000000	      0.00000000	      0.00000000	      0.00000000	      4.90657806	     10.94054508	    -68.78095245	   -300.57779640	  -1190.32897043	      0.00000000	      0.00000000	      0.00000000	     27.55002369	      7.62852031	    -25.88937030	   -137.08476257	   -305.31616288	   -689.77973765	      0.00000000	      0.00000000	     -0.00000000	   -150.97407618	      0.00000000	     -0.00000000	      0.00000000	      0.00000000	      0.00000000	      0.00000000	      0.00000000	      0.00000000	      0.00000000
      4.95000000	      0.00000000	     -0.00000000	      0.00000000	      0.00000000	      0.00000000	      0.00000000	      0.00000000	      0.00000000	      0.00000000	      5.77786636	     10.41686821	    -74.07752991	   -308.72149289	  -1178.33122996	      0.00000000	      0.00000000	      0.00000000	    246.85226392	      9.10329324	    -25.92155306	   -152.23010254	   -310.09875425	   -695.11911326	      0.00000000	      0.00000000	     -0.00000000	   -375.78814266	      0.00000000	     -0.00000000	      0.00000000	      0.00000000	      0.00000000	      0.00000000	      0.00000000	      0.00000000	      0.00000000
      4.96000000	      0.00000000	     -0.00000000	      0.00000000	      0.00000000	      0.00000000	      0.00000000	      0.00000000	      0.00000000	      0.00000000	      6.55853081	      9.26956177	    -85.43619537	   -315.42822714	  -1174.52368598	      0.00000000	      0.00000000	      0.00000000	    283.87354950	      9.72674162	    -25.80133671	   -175.88224792	   -312.93723171	   -697.67764784	      0.00000000	      0.00000000	     -0.00000000	   -329.22809639	      0.00000000	     -0.00000000	      0.00000000	      0.00000000	      0.00000000	      0.00000000	      0.00000000	      0.00000000	      0.00000000
      4.97000000	      0.00000000	     -0.00000000	      0.00000000	      0.00000000	      0.00000000	      0.00000000	      0.00000000	      0.00000000	      0.00000000	      7.13684082	      7.98669958	   -109.96075439	   -319.36317167	  -1172.20211790	      0.00000000	      0.00000000	      0.00000000	    652.10885525	     10.01272372	    -26.34294935	   -209.26280212	   -313.70676244	   -699.60007733	      0.00000000	      0.00000000	     -0.00000000	   -439.00316471	      0.00000000	     -0.00000000	      0.00000000	      0.00000000	      0.00000000	      0.00000000	      0.00000000	      0.00000000	      0.00000000
